DataRate=1500.000000
DataType=double
version=3
OpenSimVersion=4.3-2021-08-27-4bc7ad9
endheader
time	f1_1	f1_2	f1_3	p1_1	p1_2	p1_3	m1_1	m1_2	m1_3	f2_1	f2_2	f2_3	p2_1	p2_2	p2_3	m2_1	m2_2	m2_3	f3_1	f3_2	f3_3	p3_1	p3_2	p3_3	m3_1	m3_2	m3_3
1.198	0	0	0	-259.0899946689606	398.0210380554199	1.304700020700693	0	0	0	0	0	-0	251.3170061707497	231.415009777993	1.697000026702881	0	0	-0	85.72403134225165	-48.5479027503453	684.3199588004728	949.9620513916016	396.987003326416	4.582600176334381	79584.62430274919	-3730.05625352401	-12467.47566891369
1.198666666666667	0	0	0	-259.0899946689606	398.0210380554199	1.304700020700693	0	0	0	0	0	-0	251.3170061707497	231.415009777993	1.697000026702881	0	0	-0	86.14017259870445	-48.31499898646664	681.559684068093	949.9620513916016	396.987003326416	4.582600176334381	79596.31179137276	-3630.490891836244	-12303.28610541133
1.199333333333333	0	0	0	-259.0899946689606	398.0210380554199	1.304700020700693	0	0	0	0	0	-0	251.3170061707497	231.415009777993	1.697000026702881	0	0	-0	83.36437456131493	-48.07017982017435	680.5753759254436	949.9620513916016	396.987003326416	4.582600176334381	79239.9749535154	-3602.174037916611	-12099.44563350782
1.2	0	0	0	-259.0899946689606	398.0210380554199	1.304700020700693	0	0	0	0	0	-0	251.3170061707497	231.415009777993	1.697000026702881	0	0	-0	81.84654498164642	-49.01752842117637	679.1290474215921	949.9620513916016	396.987003326416	4.582600176334381	79368.74572713693	-3589.290433005865	-11868.94463286052
1.200666666666667	0	0	0	-259.0899946689606	398.0210380554199	1.304700020700693	0	0	0	0	0	-0	251.3170061707497	231.415009777993	1.697000026702881	0	0	-0	82.12094477938226	-47.72621007091139	681.1120783806538	949.9620513916016	396.987003326416	4.582600176334381	79422.54904051957	-3430.768076684248	-11877.24217579783
1.201333333333333	0	0	0	-259.0899946689606	398.0210380554199	1.304700020700693	0	0	0	0	0	-0	251.3170061707497	231.415009777993	1.697000026702881	0	0	-0	81.46283434062563	-47.75365690352639	677.1084647548362	949.9620513916016	396.987003326416	4.582600176334381	78630.4355118613	-3659.392061464898	-11607.06364858839
1.202	0	0	0	-259.0899946689606	398.0210380554199	1.304700020700693	0	0	0	0	0	-0	251.3170061707497	231.415009777993	1.697000026702881	0	0	-0	80.01777567053415	-48.87647085993563	677.18357548838	949.9620513916016	396.987003326416	4.582600176334381	78451.8786117632	-3960.110343663609	-11517.87831966139
1.202666666666667	0	0	0	-259.0899946689606	398.0210380554199	1.304700020700693	0	0	0	0	0	-0	251.3170061707497	231.415009777993	1.697000026702881	0	0	-0	80.20383218735915	-47.67813736729303	675.6776889632981	949.9620513916016	396.987003326416	4.582600176334381	78716.37997487653	-4004.11974451763	-11796.64909905534
1.203333333333333	0	0	0	-259.0899946689606	398.0210380554199	1.304700020700693	0	0	0	0	0	-0	251.3170061707497	231.415009777993	1.697000026702881	0	0	-0	78.24115021720638	-48.13150632370701	674.5950571246943	949.9620513916016	396.987003326416	4.582600176334381	78286.49618967065	-3771.952644871176	-11464.98067873026
1.204	0	0	0	-259.0899946689606	398.0210380554199	1.304700020700693	0	0	0	0	0	-0	251.3170061707497	231.415009777993	1.697000026702881	0	0	-0	77.70684539002606	-47.78614615417148	673.4403430347537	949.9620513916016	396.987003326416	4.582600176334381	78831.92437200922	-3779.558070054576	-11271.65065793558
1.204666666666667	0	0	0	-259.0899946689606	398.0210380554199	1.304700020700693	0	0	0	0	0	-0	251.3170061707497	231.415009777993	1.697000026702881	0	0	-0	77.85746679737682	-47.5600514929254	676.1410066344591	949.9620513916016	396.987003326416	4.582600176334381	78105.50344110587	-4203.127263906177	-11224.54531601778
1.205333333333333	0	0	0	-259.0899946689606	398.0210380554199	1.304700020700693	0	0	0	0	0	-0	251.3170061707497	231.415009777993	1.697000026702881	0	0	-0	76.48898221389202	-47.13140630760676	663.3864733817721	949.9620513916016	396.987003326416	4.582600176334381	78372.55507015376	-4739.209259311063	-11132.65655545154
1.206	0	0	0	-259.0899946689606	398.0210380554199	1.304700020700693	0	0	0	0	0	-0	251.3170061707497	231.415009777993	1.697000026702881	0	0	-0	76.02710524843548	-47.20433925768922	669.5249299164167	949.9620513916016	396.987003326416	4.582600176334381	78035.80423139228	-3867.96807087087	-11088.22984306868
1.206666666666667	0	0	0	-259.0899946689606	398.0210380554199	1.304700020700693	0	0	0	0	0	-0	251.3170061707497	231.415009777993	1.697000026702881	0	0	-0	75.15512449566135	-46.93690228517047	669.7930450471541	949.9620513916016	396.987003326416	4.582600176334381	78067.18649425893	-3747.22829595446	-10976.80246955984
1.207333333333333	0	0	0	-259.0899946689606	398.0210380554199	1.304700020700693	0	0	0	0	0	-0	251.3170061707497	231.415009777993	1.697000026702881	0	0	-0	74.62269922533123	-46.15652500531734	668.0172480478163	949.9620513916016	396.987003326416	4.582600176334381	77648.4660446561	-3526.190842437889	-10866.77217060467
1.208	0	0	0	-259.0899946689606	398.0210380554199	1.304700020700693	0	0	0	0	0	-0	251.3170061707497	231.415009777993	1.697000026702881	0	0	-0	73.97969596631785	-46.20563497173256	669.4498370610788	949.9620513916016	396.987003326416	4.582600176334381	77435.9080289674	-3726.930949366064	-10832.33567781812
1.208666666666667	0	0	0	-259.0899946689606	398.0210380554199	1.304700020700693	0	0	0	0	0	-0	251.3170061707497	231.415009777993	1.697000026702881	0	0	-0	74.0294163027019	-45.94440923779888	666.6918548739204	949.9620513916016	396.987003326416	4.582600176334381	77426.52839080933	-3780.648334968433	-10689.91581886014
1.209333333333333	0	0	0	-259.0899946689606	398.0210380554199	1.304700020700693	0	0	0	0	0	-0	251.3170061707497	231.415009777993	1.697000026702881	0	0	-0	72.66147207906373	-46.13939826377411	665.271828842548	949.9620513916016	396.987003326416	4.582600176334381	77968.4066152288	-4535.029507369732	-10638.70635663387
1.21	0	0	0	-259.0899946689606	398.0210380554199	1.304700020700693	0	0	0	0	0	-0	251.3170061707497	231.415009777993	1.697000026702881	0	0	-0	71.78034094174184	-46.22551652288698	663.2066183593029	949.9620513916016	396.987003326416	4.582600176334381	77836.62074731516	-3854.363308981767	-10238.06946165387
1.210666666666667	0	0	0	-259.0899946689606	398.0210380554199	1.304700020700693	0	0	0	0	0	-0	251.3170061707497	231.415009777993	1.697000026702881	0	0	-0	70.38377402885294	-45.58440187134284	662.6846831501335	949.9620513916016	396.987003326416	4.582600176334381	76814.22705665694	-4055.900760241205	-10280.52116468438
1.211333333333333	0	0	0	-259.0899946689606	398.0210380554199	1.304700020700693	0	0	0	0	0	-0	251.3170061707497	231.415009777993	1.697000026702881	0	0	-0	69.70189020604016	-45.87679341134194	661.693952829215	949.9620513916016	396.987003326416	4.582600176334381	77120.64743095468	-3829.672051785882	-10026.33030203496
1.212	0	0	0	-259.0899946689606	398.0210380554199	1.304700020700693	0	0	0	0	0	-0	251.3170061707497	231.415009777993	1.697000026702881	0	0	-0	68.27584526547751	-45.41584126593089	657.8586996750404	949.9620513916016	396.987003326416	4.582600176334381	76331.77806052078	-3777.42523092722	-9990.927057373694
1.212666666666667	0	0	0	-259.0899946689606	398.0210380554199	1.304700020700693	0	0	0	0	0	-0	251.3170061707497	231.415009777993	1.697000026702881	0	0	-0	69.09950723826591	-45.36269219138271	657.9423170802843	949.9620513916016	396.987003326416	4.582600176334381	76780.59823721663	-3584.801505993603	-10085.9154894579
1.213333333333333	0	0	0	-259.0899946689606	398.0210380554199	1.304700020700693	0	0	0	0	0	-0	251.3170061707497	231.415009777993	1.697000026702881	0	0	-0	68.31603488149074	-45.09183938222036	658.1401290721291	949.9620513916016	396.987003326416	4.582600176334381	76785.84886651936	-3924.919618606692	-9779.996020167247
1.214	0	0	0	-259.0899946689606	398.0210380554199	1.304700020700693	0	0	0	0	0	-0	251.3170061707497	231.415009777993	1.697000026702881	0	0	-0	66.81725946802509	-44.71254646867354	651.6356277579696	949.9620513916016	396.987003326416	4.582600176334381	76175.7661412532	-4258.770779391039	-9669.476696937134
1.214666666666667	0	0	0	-259.0899946689606	398.0210380554199	1.304700020700693	0	0	0	0	0	-0	251.3170061707497	231.415009777993	1.697000026702881	0	0	-0	66.3056066248358	-44.71766323563418	654.2918948699476	949.9620513916016	396.987003326416	4.582600176334381	76488.92482120817	-3637.979525314436	-9730.565230725872
1.215333333333333	0	0	0	-259.0899946689606	398.0210380554199	1.304700020700693	0	0	0	0	0	-0	251.3170061707497	231.415009777993	1.697000026702881	0	0	-0	65.1545765892597	-43.95332197747633	652.5951084924745	949.9620513916016	396.987003326416	4.582600176334381	76051.41232529575	-3272.640303740203	-9725.408792329788
1.216	0	0	0	-259.0899946689606	398.0210380554199	1.304700020700693	0	0	0	0	0	-0	251.3170061707497	231.415009777993	1.697000026702881	0	0	-0	65.08795419047007	-43.76420935176187	651.1218430772965	949.9620513916016	396.987003326416	4.582600176334381	75601.98730177421	-4241.142235472204	-9284.962714484342
1.216666666666667	0	0	0	-259.0899946689606	398.0210380554199	1.304700020700693	0	0	0	0	0	-0	251.3170061707497	231.415009777993	1.697000026702881	0	0	-0	64.61115470951795	-43.32125723009721	648.5188279333589	949.9620513916016	396.987003326416	4.582600176334381	76127.1749342199	-3898.72909391509	-9484.008823241276
1.217333333333333	0	0	0	-259.0899946689606	398.0210380554199	1.304700020700693	0	0	0	0	0	-0	251.3170061707497	231.415009777993	1.697000026702881	0	0	-0	63.49000183409126	-43.27431826380529	648.6174037770029	949.9620513916016	396.987003326416	4.582600176334381	75495.92964844627	-4020.864741183511	-9250.550339435231
1.218	0	0	0	-259.0899946689606	398.0210380554199	1.304700020700693	0	0	0	0	0	-0	251.3170061707497	231.415009777993	1.697000026702881	0	0	-0	63.1224405094794	-42.3409674488864	646.9192608769762	949.9620513916016	396.987003326416	4.582600176334381	75294.23279195387	-3528.080240479951	-9353.892019029876
1.218666666666667	0	0	0	-259.0899946689606	398.0210380554199	1.304700020700693	0	0	0	0	0	-0	251.3170061707497	231.415009777993	1.697000026702881	0	0	-0	62.88386886300751	-42.59390853798862	645.1448117565873	949.9620513916016	396.987003326416	4.582600176334381	75230.81082474621	-3819.914961351097	-9061.921821956976
1.219333333333333	0	0	0	-259.0899946689606	398.0210380554199	1.304700020700693	0	0	0	0	0	-0	251.3170061707497	231.415009777993	1.697000026702881	0	0	-0	61.78444734441323	-42.5583320068523	644.0702461143557	949.9620513916016	396.987003326416	4.582600176334381	74869.17267207448	-3677.183394574558	-8939.924537542885
1.22	0	0	0	-259.0899946689606	398.0210380554199	1.304700020700693	0	0	0	0	0	-0	251.3170061707497	231.415009777993	1.697000026702881	0	0	-0	60.40210014070899	-42.59706468207789	641.3062516030649	949.9620513916016	396.987003326416	4.582600176334381	74883.33552697515	-3914.041014620343	-8756.463217479821
1.220666666666667	0	0	0	-259.0899946689606	398.0210380554199	1.304700020700693	0	0	0	0	0	-0	251.3170061707497	231.415009777993	1.697000026702881	0	0	-0	59.99984398253271	-42.17946473132059	641.2302166917701	949.9620513916016	396.987003326416	4.582600176334381	74834.3118137595	-4350.200908650483	-8883.824432203042
1.221333333333333	0	0	0	-259.0899946689606	398.0210380554199	1.304700020700693	0	0	0	0	0	-0	251.3170061707497	231.415009777993	1.697000026702881	0	0	-0	59.07218271731212	-42.44467008732897	638.826810286742	949.9620513916016	396.987003326416	4.582600176334381	74400.61575888643	-4299.277971982945	-8365.46388894365
1.222	0	0	0	-259.0899946689606	398.0210380554199	1.304700020700693	0	0	0	0	0	-0	251.3170061707497	231.415009777993	1.697000026702881	0	0	-0	57.69251898739578	-42.86254662421063	635.6656813066774	949.9620513916016	396.987003326416	4.582600176334381	74381.26703407368	-3768.573200339942	-8606.908957411728
1.222666666666667	0	0	0	-259.0899946689606	398.0210380554199	1.304700020700693	0	0	0	0	0	-0	251.3170061707497	231.415009777993	1.697000026702881	0	0	-0	56.98240928956434	-42.1919207064502	636.1556665679319	949.9620513916016	396.987003326416	4.582600176334381	74006.83629141671	-4222.274394163136	-7910.049960411475
